<svg width="180" height="180" viewBox="0 0 180 180" fill="none" xmlns="http://www.w3.org/2000/svg">
<rect width="180" height="180" rx="50" fill="#FFEA7C"/>
<path d="M45.752 74.688V82.36H35.336V114H25.76V82.36H15.344V74.688H45.752ZM64.7819 114.448C61.7206 114.448 58.9579 113.795 56.4939 112.488C54.0673 111.181 52.1446 109.315 50.7259 106.888C49.3446 104.461 48.6539 101.624 48.6539 98.376C48.6539 95.1653 49.3633 92.3467 50.7819 89.92C52.2006 87.456 54.1419 85.5707 56.6059 84.264C59.0699 82.9573 61.8326 82.304 64.8939 82.304C67.9553 82.304 70.7179 82.9573 73.1819 84.264C75.6459 85.5707 77.5873 87.456 79.0059 89.92C80.4246 92.3467 81.1339 95.1653 81.1339 98.376C81.1339 101.587 80.4059 104.424 78.9499 106.888C77.5313 109.315 75.5713 111.181 73.0699 112.488C70.6059 113.795 67.8433 114.448 64.7819 114.448ZM64.7819 106.16C66.6113 106.16 68.1606 105.488 69.4299 104.144C70.7366 102.8 71.3899 100.877 71.3899 98.376C71.3899 95.8747 70.7553 93.952 69.4859 92.608C68.2539 91.264 66.7233 90.592 64.8939 90.592C63.0273 90.592 61.4779 91.264 60.2459 92.608C59.0139 93.9147 58.3979 95.8373 58.3979 98.376C58.3979 100.877 58.9953 102.8 60.1899 104.144C61.4219 105.488 62.9526 106.16 64.7819 106.16ZM100.438 114.448C97.3769 114.448 94.6142 113.795 92.1502 112.488C89.7235 111.181 87.8009 109.315 86.3822 106.888C85.0009 104.461 84.3102 101.624 84.3102 98.376C84.3102 95.1653 85.0195 92.3467 86.4382 89.92C87.8569 87.456 89.7982 85.5707 92.2622 84.264C94.7262 82.9573 97.4889 82.304 100.55 82.304C103.612 82.304 106.374 82.9573 108.838 84.264C111.302 85.5707 113.244 87.456 114.662 89.92C116.081 92.3467 116.79 95.1653 116.79 98.376C116.79 101.587 116.062 104.424 114.606 106.888C113.188 109.315 111.228 111.181 108.726 112.488C106.262 113.795 103.5 114.448 100.438 114.448ZM100.438 106.16C102.268 106.16 103.817 105.488 105.086 104.144C106.393 102.8 107.046 100.877 107.046 98.376C107.046 95.8747 106.412 93.952 105.142 92.608C103.91 91.264 102.38 90.592 100.55 90.592C98.6835 90.592 97.1342 91.264 95.9022 92.608C94.6702 93.9147 94.0542 95.8373 94.0542 98.376C94.0542 100.877 94.6515 102.8 95.8462 104.144C97.0782 105.488 98.6089 106.16 100.438 106.16ZM131.446 72.56V114H121.87V72.56H131.446ZM151.098 114.448C148.373 114.448 145.946 113.981 143.818 113.048C141.69 112.115 140.01 110.845 138.778 109.24C137.546 107.597 136.855 105.768 136.706 103.752H146.17C146.282 104.835 146.786 105.712 147.682 106.384C148.578 107.056 149.679 107.392 150.986 107.392C152.181 107.392 153.095 107.168 153.73 106.72C154.402 106.235 154.738 105.619 154.738 104.872C154.738 103.976 154.271 103.323 153.338 102.912C152.405 102.464 150.893 101.979 148.802 101.456C146.562 100.933 144.695 100.392 143.202 99.832C141.709 99.2347 140.421 98.32 139.338 97.088C138.255 95.8187 137.714 94.12 137.714 91.992C137.714 90.2 138.199 88.576 139.17 87.12C140.178 85.6267 141.634 84.4507 143.538 83.592C145.479 82.7333 147.775 82.304 150.426 82.304C154.346 82.304 157.426 83.2747 159.666 85.216C161.943 87.1573 163.25 89.7333 163.586 92.944H154.738C154.589 91.8613 154.103 91.0027 153.282 90.368C152.498 89.7333 151.453 89.416 150.146 89.416C149.026 89.416 148.167 89.64 147.57 90.088C146.973 90.4987 146.674 91.0773 146.674 91.824C146.674 92.72 147.141 93.392 148.074 93.84C149.045 94.288 150.538 94.736 152.554 95.184C154.869 95.7813 156.754 96.3787 158.21 96.976C159.666 97.536 160.935 98.4693 162.018 99.776C163.138 101.045 163.717 102.763 163.754 104.928C163.754 106.757 163.231 108.4 162.186 109.856C161.178 111.275 159.703 112.395 157.762 113.216C155.858 114.037 153.637 114.448 151.098 114.448Z" fill="black"/>
<path d="M27.041 39.854V43.005H22.763V56H18.83V43.005H14.552V39.854H27.041ZM36.9039 43.028C38.3759 43.028 39.5565 43.5187 40.4459 44.5C41.3352 45.466 41.7799 46.8 41.7799 48.502V56H37.8699V49.031C37.8699 48.1723 37.6475 47.5053 37.2029 47.03C36.7582 46.5547 36.1602 46.317 35.4089 46.317C34.6575 46.317 34.0595 46.5547 33.6149 47.03C33.1702 47.5053 32.9479 48.1723 32.9479 49.031V56H29.0149V38.98H32.9479V44.891C33.3465 44.3237 33.8909 43.8713 34.5809 43.534C35.2709 43.1967 36.0452 43.028 36.9039 43.028ZM56.6109 49.376C56.6109 49.744 56.5879 50.1273 56.5419 50.526H47.6409C47.7022 51.3233 47.9552 51.9367 48.3999 52.366C48.8599 52.78 49.4196 52.987 50.0789 52.987C51.0602 52.987 51.7426 52.573 52.1259 51.745H56.3119C56.0972 52.5883 55.7062 53.3473 55.1389 54.022C54.5869 54.6967 53.8892 55.2257 53.0459 55.609C52.2026 55.9923 51.2596 56.184 50.2169 56.184C48.9596 56.184 47.8402 55.9157 46.8589 55.379C45.8776 54.8423 45.1109 54.0757 44.5589 53.079C44.0069 52.0823 43.7309 50.917 43.7309 49.583C43.7309 48.249 43.9992 47.0837 44.5359 46.087C45.0879 45.0903 45.8546 44.3237 46.8359 43.787C47.8172 43.2503 48.9442 42.982 50.2169 42.982C51.4589 42.982 52.5629 43.2427 53.5289 43.764C54.4949 44.2853 55.2462 45.029 55.7829 45.995C56.3349 46.961 56.6109 48.088 56.6109 49.376ZM52.5859 48.341C52.5859 47.6663 52.3559 47.1297 51.8959 46.731C51.4359 46.3323 50.8609 46.133 50.1709 46.133C49.5116 46.133 48.9519 46.3247 48.4919 46.708C48.0472 47.0913 47.7712 47.6357 47.6639 48.341H52.5859Z" fill="black"/>
</svg>
