<svg width="23" height="18" viewBox="0 0 23 18" fill="none" xmlns="http://www.w3.org/2000/svg">
<path d="M10.8784 16.9679C10.7596 17.0661 10.6186 17.144 10.4633 17.1972C10.308 17.2503 10.1416 17.2776 9.97355 17.2776C9.80547 17.2776 9.63905 17.2503 9.48379 17.1972C9.32853 17.144 9.18748 17.0661 9.0687 16.9679L0.375097 9.79506C0.256186 9.69698 0.161852 9.58052 0.0974901 9.45232C0.0331283 9.32413 0 9.18671 0 9.04794C0 8.90916 0.0331283 8.77175 0.0974901 8.64355C0.161852 8.51536 0.256186 8.39889 0.375097 8.30082L9.0687 1.12794C9.18639 1.02584 9.32764 0.944229 9.48413 0.887915C9.64062 0.8316 9.80918 0.801723 9.97988 0.800045C10.1506 0.798367 10.3199 0.824919 10.478 0.878139C10.6361 0.93136 10.7797 1.01017 10.9003 1.10992C11.0209 1.20968 11.1161 1.32836 11.1802 1.45897C11.2444 1.58958 11.2763 1.72948 11.2739 1.87041C11.2716 2.01135 11.2351 2.15047 11.1666 2.27959C11.0982 2.4087 10.9991 2.52518 10.8752 2.62218L3.08645 9.04794L10.8752 15.4737C10.9943 15.5716 11.0889 15.6879 11.1535 15.816C11.2182 15.9441 11.2516 16.0815 11.2519 16.2203C11.2522 16.359 11.2194 16.4965 11.1553 16.6248C11.0912 16.7531 10.9971 16.8697 10.8784 16.9679Z" fill="black"/>
<path d="M22.484 16.9679C22.3653 17.0661 22.2242 17.144 22.069 17.1972C21.9137 17.2503 21.7473 17.2776 21.5792 17.2776C21.4111 17.2776 21.2447 17.2503 21.0894 17.1972C20.9342 17.144 20.7931 17.0661 20.6743 16.9679L11.9807 9.79506C11.8618 9.69698 11.7675 9.58052 11.7031 9.45232C11.6388 9.32413 11.6057 9.18671 11.6057 9.04794C11.6057 8.90916 11.6388 8.77175 11.7031 8.64355C11.7675 8.51536 11.8618 8.39889 11.9807 8.30082L20.6743 1.12794C20.792 1.02584 20.9333 0.944229 21.0898 0.887915C21.2463 0.8316 21.4148 0.801723 21.5855 0.800045C21.7562 0.798367 21.9256 0.824919 22.0837 0.878139C22.2417 0.93136 22.3853 1.01017 22.5059 1.10992C22.6265 1.20968 22.7217 1.32836 22.7859 1.45897C22.8501 1.58958 22.8819 1.72948 22.8796 1.87041C22.8772 2.01135 22.8408 2.15047 22.7723 2.27959C22.7038 2.4087 22.6047 2.52518 22.4809 2.62218L14.6921 9.04794L22.4809 15.4737C22.6 15.5716 22.6946 15.6879 22.7592 15.816C22.8238 15.9441 22.8573 16.0815 22.8575 16.2203C22.8578 16.359 22.825 16.4965 22.7609 16.6248C22.6968 16.7531 22.6028 16.8697 22.484 16.9679Z" fill="black"/>
</svg>
