<svg width="31" height="33" viewBox="0 0 31 33" fill="none" xmlns="http://www.w3.org/2000/svg">
    <path d="M8.30663 21.1563C8.39753 21.2524 8.50547 21.3287 8.62428 21.3807C8.7431 21.4328 8.87046 21.4595 8.99908 21.4595C9.1277 21.4595 9.25506 21.4328 9.37387 21.3807C9.49269 21.3287 9.60063 21.2524 9.69152 21.1563L16.3444 14.1339C16.4354 14.0379 16.5076 13.9239 16.5568 13.7984C16.6061 13.6729 16.6314 13.5383 16.6314 13.4025C16.6314 13.2666 16.6061 13.1321 16.5568 13.0066C16.5076 12.8811 16.4354 12.767 16.3444 12.671L9.69152 5.64863C9.60146 5.54867 9.49337 5.46877 9.37361 5.41364C9.25385 5.35851 9.12486 5.32926 8.99423 5.32762C8.86361 5.32597 8.73399 5.35197 8.61303 5.40407C8.49206 5.45618 8.3822 5.53333 8.2899 5.63099C8.19761 5.72866 8.12476 5.84485 8.07565 5.97272C8.02654 6.10059 8.00216 6.23755 8.00395 6.37553C8.00573 6.51351 8.03365 6.64971 8.08605 6.77612C8.13846 6.90252 8.21429 7.01656 8.30908 7.11152L14.2695 13.4025L8.30908 19.6934C8.21792 19.7893 8.14554 19.9032 8.09607 20.0286C8.04661 20.154 8.02103 20.2885 8.02081 20.4243C8.02058 20.5602 8.04571 20.6948 8.09475 20.8204C8.14379 20.946 8.21579 21.0601 8.30663 21.1563V21.1563Z" fill="black"/>
    <path d="M15.2355 21.1563C15.3218 21.2524 15.4243 21.3287 15.5372 21.3807C15.6501 21.4328 15.7711 21.4595 15.8933 21.4595C16.0155 21.4595 16.1365 21.4328 16.2493 21.3807C16.3622 21.3287 16.4647 21.2524 16.5511 21.1563L22.8713 14.1339C22.9578 14.0379 23.0264 13.9239 23.0731 13.7984C23.1199 13.6729 23.144 13.5383 23.144 13.4025C23.144 13.2666 23.1199 13.1321 23.0731 13.0066C23.0264 12.8811 22.9578 12.767 22.8713 12.671L16.5511 5.64863C16.4655 5.54867 16.3629 5.46877 16.2491 5.41364C16.1353 5.35851 16.0128 5.32926 15.8887 5.32762C15.7646 5.32597 15.6414 5.35197 15.5265 5.40407C15.4116 5.45618 15.3072 5.53333 15.2196 5.63099C15.1319 5.72866 15.0627 5.84485 15.016 5.97272C14.9694 6.10059 14.9462 6.23755 14.9479 6.37553C14.9496 6.51351 14.9761 6.64971 15.0259 6.77612C15.0757 6.90252 15.1477 7.01656 15.2378 7.11152L20.9002 13.4025L15.2378 19.6934C15.1512 19.7893 15.0824 19.9032 15.0354 20.0286C14.9884 20.154 14.9641 20.2885 14.9639 20.4243C14.9637 20.5602 14.9876 20.6948 15.0342 20.8204C15.0808 20.946 15.1492 21.0601 15.2355 21.1563V21.1563Z" fill="black"/>
</svg>
