<svg width="60" height="60" viewBox="0 0 60 60" fill="none" xmlns="http://www.w3.org/2000/svg">
<circle cx="30" cy="30" r="29.5" fill="#FFEA7C" stroke="black"/>
<path d="M42.0396 18H39.7246C39.6453 17.9999 39.5667 18.0159 39.4938 18.0471C39.4208 18.0783 39.3549 18.1239 39.3001 18.1813C39.2453 18.2387 39.2028 18.3067 39.175 18.381C39.1473 18.4553 39.1349 18.5345 39.1387 18.6138L39.334 22.6548C38.1984 21.3166 36.7849 20.242 35.1919 19.5056C33.5988 18.7692 31.8644 18.3887 30.1094 18.3906C23.4365 18.3906 17.9951 23.8364 18 30.5093C18.0049 37.1929 23.4248 42.6094 30.1094 42.6094C33.1079 42.6136 36.0006 41.5011 38.2236 39.4888C38.283 39.4356 38.3309 39.3709 38.3645 39.2986C38.398 39.2263 38.4164 39.1479 38.4186 39.0683C38.4208 38.9886 38.4067 38.9093 38.3772 38.8353C38.3477 38.7613 38.3034 38.694 38.2471 38.6377L36.5869 36.9775C36.4818 36.8725 36.3408 36.8113 36.1923 36.8063C36.0438 36.8013 35.899 36.8529 35.7871 36.9507C34.4753 38.1048 32.8429 38.8317 31.1075 39.0344C29.3721 39.237 27.6161 38.9059 26.0736 38.0852C24.5312 37.2644 23.2756 35.993 22.4741 34.4405C21.6727 32.8879 21.3636 31.1279 21.5879 29.3951C21.8123 27.6624 22.5595 26.0392 23.7299 24.7419C24.9003 23.4446 26.4383 22.5349 28.139 22.1341C29.8396 21.7332 31.622 21.8603 33.2485 22.4983C34.8751 23.1363 36.2686 24.2549 37.2432 25.7051L32.2856 25.4673C32.2064 25.4635 32.1272 25.4759 32.0529 25.5036C31.9785 25.5314 31.9106 25.574 31.8532 25.6287C31.7958 25.6835 31.7502 25.7494 31.719 25.8224C31.6878 25.8953 31.6718 25.9739 31.6719 26.0532V28.3682C31.6719 28.5236 31.7336 28.6726 31.8435 28.7825C31.9534 28.8924 32.1024 28.9541 32.2578 28.9541H42.0396C42.195 28.9541 42.344 28.8924 42.4539 28.7825C42.5638 28.6726 42.6255 28.5236 42.6255 28.3682V18.5859C42.6255 18.4305 42.5638 18.2815 42.4539 18.1716C42.344 18.0617 42.195 18 42.0396 18Z" fill="black"/>
</svg>
