<svg width="60" height="60" viewBox="0 0 60 60" fill="none" xmlns="http://www.w3.org/2000/svg">
<circle cx="30" cy="30" r="29.5" fill="#FFEA7C" stroke="black"/>
<path d="M29.6144 17C25.717 17 23.1927 18.5968 21.2108 21.4446C20.8513 21.9612 20.9621 22.6695 21.4636 23.0498L23.57 24.6469C24.0765 25.031 24.7971 24.9412 25.1936 24.4444C26.4167 22.9121 27.324 22.0299 29.2345 22.0299C30.7367 22.0299 32.5947 22.9966 32.5947 24.4533C32.5947 25.5544 31.6856 26.12 30.2024 26.9515C28.4728 27.9212 26.1839 29.1281 26.1839 32.1471V32.625C26.1839 33.2722 26.7086 33.7969 27.3558 33.7969H30.8944C31.5416 33.7969 32.0663 33.2722 32.0663 32.625V32.3431C32.0663 30.2503 38.1829 30.1632 38.1829 24.5C38.1829 20.2352 33.759 17 29.6144 17ZM29.1251 35.2353C27.2601 35.2353 25.7428 36.7526 25.7428 38.6177C25.7428 40.4827 27.2601 42 29.1251 42C30.9902 42 32.5075 40.4827 32.5075 38.6176C32.5075 36.7526 30.9902 35.2353 29.1251 35.2353Z" fill="black"/>
</svg>
