<svg width="60" height="72" viewBox="0 0 60 72" fill="none" xmlns="http://www.w3.org/2000/svg">
<circle cx="30" cy="36" r="29.5" fill="#FFEA7C" stroke="black"/>
<path d="M18.448 27.848C18.576 24.424 19.696 21.784 21.808 19.928C23.92 18.072 26.784 17.144 30.4 17.144C32.8 17.144 34.848 17.56 36.544 18.392C38.272 19.224 39.568 20.36 40.432 21.8C41.328 23.24 41.776 24.856 41.776 26.648C41.776 28.76 41.248 30.488 40.192 31.832C39.136 33.144 37.904 34.04 36.496 34.52V34.712C38.32 35.32 39.76 36.328 40.816 37.736C41.872 39.144 42.4 40.952 42.4 43.16C42.4 45.144 41.936 46.904 41.008 48.44C40.112 49.944 38.784 51.128 37.024 51.992C35.296 52.856 33.232 53.288 30.832 53.288C26.992 53.288 23.92 52.344 21.616 50.456C19.344 48.568 18.144 45.72 18.016 41.912H25.984C26.016 43.32 26.416 44.44 27.184 45.272C27.952 46.072 29.072 46.472 30.544 46.472C31.792 46.472 32.752 46.12 33.424 45.416C34.128 44.68 34.48 43.72 34.48 42.536C34.48 41 33.984 39.896 32.992 39.224C32.032 38.52 30.48 38.168 28.336 38.168H26.8V31.496H28.336C29.968 31.496 31.28 31.224 32.272 30.68C33.296 30.104 33.808 29.096 33.808 27.656C33.808 26.504 33.488 25.608 32.848 24.968C32.208 24.328 31.328 24.008 30.208 24.008C28.992 24.008 28.08 24.376 27.472 25.112C26.896 25.848 26.56 26.76 26.464 27.848H18.448Z" fill="black"/>
</svg>
