<svg width="60" height="60" viewBox="0 0 60 60" fill="none" xmlns="http://www.w3.org/2000/svg">
<circle cx="30" cy="30" r="29.5" fill="#FFEA7C" stroke="black"/>
<path d="M29.5408 18C2.56981 18 7.75134 42 19.8846 42C22.316 42 24.6055 40.7069 26.0649 38.5088L27.6328 36.1469C28.5871 34.71 30.4951 34.71 31.4494 36.1469L33.0173 38.5088C34.4761 40.7069 36.7656 42 39.197 42C50.7666 42 56.9073 18 29.5408 18ZM21.2125 33.2725C18.7104 33.2725 17.0833 31.6687 16.3326 30.7069C16.0139 30.2987 16.0139 29.7012 16.3326 29.2925C17.0833 28.33 18.7097 26.7269 21.2125 26.7269C23.7152 26.7269 25.3416 28.3306 26.0923 29.2925C26.411 29.7006 26.411 30.2981 26.0923 30.7069C25.3416 31.6694 23.7146 33.2725 21.2125 33.2725ZM37.7875 33.2725C35.2854 33.2725 33.6583 31.6687 32.9076 30.7069C32.5889 30.2987 32.5889 29.7012 32.9076 29.2925C33.6583 28.33 35.2848 26.7269 37.7875 26.7269C40.2902 26.7269 41.9166 28.3306 42.6674 29.2925C42.9861 29.7006 42.9861 30.2981 42.6674 30.7069C41.9166 31.6694 40.2896 33.2725 37.7875 33.2725Z" fill="black"/>
</svg>
