<svg width="60" height="60" viewBox="0 0 60 60" fill="none" xmlns="http://www.w3.org/2000/svg">
<circle cx="30" cy="30" r="29.5" fill="#FFEA7C" stroke="black"/>
<path d="M29.1695 25.0438L21.1673 31.6345V38.7478C21.1673 38.932 21.2405 39.1086 21.3707 39.2389C21.5009 39.3691 21.6776 39.4423 21.8618 39.4423L26.7255 39.4297C26.9091 39.4288 27.0848 39.3552 27.2143 39.2251C27.3438 39.0949 27.4165 38.9188 27.4164 38.7352V34.5812C27.4164 34.397 27.4896 34.2204 27.6198 34.0901C27.7501 33.9599 27.9267 33.8867 28.1109 33.8867H30.8887C31.0728 33.8867 31.2495 33.9599 31.3797 34.0901C31.51 34.2204 31.5831 34.397 31.5831 34.5812V38.7322C31.5828 38.8236 31.6006 38.9141 31.6354 38.9986C31.6701 39.0831 31.7212 39.1599 31.7857 39.2247C31.8503 39.2894 31.9269 39.3407 32.0113 39.3758C32.0957 39.4108 32.1862 39.4288 32.2776 39.4288L37.1395 39.4423C37.3237 39.4423 37.5004 39.3691 37.6306 39.2389C37.7608 39.1086 37.834 38.932 37.834 38.7478V31.6298L29.8335 25.0438C29.7395 24.968 29.6223 24.9267 29.5015 24.9267C29.3807 24.9267 29.2635 24.968 29.1695 25.0438ZM41.8097 29.5234L38.1812 26.5326V20.5208C38.1812 20.3827 38.1263 20.2502 38.0287 20.1525C37.931 20.0549 37.7985 20 37.6604 20H35.2298C35.0917 20 34.9592 20.0549 34.8615 20.1525C34.7639 20.2502 34.709 20.3827 34.709 20.5208V23.6723L30.8231 20.4753C30.4502 20.1684 29.9823 20.0006 29.4993 20.0006C29.0164 20.0006 28.5485 20.1684 28.1756 20.4753L17.189 29.5234C17.1363 29.567 17.0926 29.6206 17.0606 29.681C17.0286 29.7415 17.0088 29.8077 17.0023 29.8758C16.9959 29.9439 17.0029 30.0126 17.023 30.078C17.0431 30.1434 17.076 30.2042 17.1196 30.2569L18.2263 31.6024C18.2698 31.6553 18.3234 31.6991 18.3838 31.7313C18.4443 31.7635 18.5105 31.7835 18.5786 31.79C18.6468 31.7966 18.7156 31.7897 18.7811 31.7696C18.8466 31.7496 18.9075 31.7168 18.9603 31.6732L29.1695 23.2643C29.2635 23.1885 29.3807 23.1472 29.5015 23.1472C29.6223 23.1472 29.7395 23.1885 29.8335 23.2643L40.0432 31.6732C40.0959 31.7168 40.1567 31.7496 40.2221 31.7697C40.2875 31.7898 40.3562 31.7969 40.4243 31.7904C40.4924 31.784 40.5586 31.7642 40.6191 31.7321C40.6795 31.7001 40.7331 31.6565 40.7767 31.6037L41.8835 30.2582C41.927 30.2052 41.9597 30.1441 41.9796 30.0784C41.9995 30.0128 42.0062 29.9438 41.9993 29.8755C41.9925 29.8072 41.9722 29.741 41.9396 29.6805C41.9071 29.6201 41.8629 29.5667 41.8097 29.5234Z" fill="black"/>
<circle cx="30" cy="30" r="29.5" fill="#FFEA7C" stroke="black"/>
<path d="M41.8489 29.6997C39.4952 25.1072 34.8355 22 29.5 22C24.1645 22 19.5034 25.1094 17.151 29.7001C17.0517 29.8965 17 30.1135 17 30.3336C17 30.5536 17.0517 30.7706 17.151 30.967C19.5048 35.5595 24.1645 38.6667 29.5 38.6667C34.8355 38.6667 39.4965 35.5573 41.8489 30.9666C41.9482 30.7702 42 30.5532 42 30.3331C42 30.113 41.9482 29.8961 41.8489 29.6997ZM29.5 36.5833C28.2638 36.5833 27.0555 36.2168 26.0277 35.53C24.9999 34.8433 24.1988 33.8671 23.7257 32.7251C23.2527 31.5831 23.1289 30.3264 23.3701 29.114C23.6112 27.9016 24.2065 26.788 25.0806 25.9139C25.9546 25.0398 27.0683 24.4446 28.2807 24.2034C29.493 23.9623 30.7497 24.086 31.8917 24.5591C33.0338 25.0321 34.0099 25.8332 34.6967 26.861C35.3834 27.8888 35.75 29.0972 35.75 30.3333C35.7504 31.1542 35.589 31.9671 35.275 32.7256C34.9611 33.484 34.5007 34.1732 33.9203 34.7536C33.3398 35.3341 32.6507 35.7944 31.8922 36.1084C31.1338 36.4223 30.3208 36.5837 29.5 36.5833ZM29.5 26.1667C29.1281 26.1719 28.7586 26.2272 28.4015 26.3312C28.6958 26.7312 28.8371 27.2235 28.7996 27.7187C28.7621 28.214 28.5484 28.6794 28.1972 29.0306C27.846 29.3818 27.3806 29.5955 26.8854 29.633C26.3901 29.6704 25.8978 29.5292 25.4978 29.2348C25.27 30.074 25.3111 30.9636 25.6154 31.7782C25.9196 32.5928 26.4717 33.2916 27.1938 33.776C27.916 34.2605 28.7719 34.5063 29.641 34.4788C30.5102 34.4514 31.3489 34.152 32.039 33.623C32.7291 33.0939 33.236 32.3617 33.4882 31.5295C33.7404 30.6973 33.7253 29.8069 33.445 28.9838C33.1647 28.1606 32.6333 27.446 31.9256 26.9407C31.2179 26.4353 30.3696 26.1646 29.5 26.1667Z" fill="black"/>
</svg>
