<svg width="60" height="72" viewBox="0 0 60 72" fill="none" xmlns="http://www.w3.org/2000/svg">
<circle cx="30" cy="36" r="29.5" fill="#FFEA7C" stroke="black"/>
<path d="M17.872 46.424C18.96 45.56 19.456 45.16 19.36 45.224C22.496 42.632 24.96 40.504 26.752 38.84C28.576 37.176 30.112 35.432 31.36 33.608C32.608 31.784 33.232 30.008 33.232 28.28C33.232 26.968 32.928 25.944 32.32 25.208C31.712 24.472 30.8 24.104 29.584 24.104C28.368 24.104 27.408 24.568 26.704 25.496C26.032 26.392 25.696 27.672 25.696 29.336H17.776C17.84 26.616 18.416 24.344 19.504 22.52C20.624 20.696 22.08 19.352 23.872 18.488C25.696 17.624 27.712 17.192 29.92 17.192C33.728 17.192 36.592 18.168 38.512 20.12C40.464 22.072 41.44 24.616 41.44 27.752C41.44 31.176 40.272 34.36 37.936 37.304C35.6 40.216 32.624 43.064 29.008 45.848H41.968V52.52H17.872V46.424Z" fill="black"/>
</svg>
