<svg width="42" height="42" viewBox="0 0 42 42" fill="none" xmlns="http://www.w3.org/2000/svg">
<circle cx="21" cy="21" r="20.5" fill="#FFEA7C" stroke="black"/>
<path d="M15.224 17.424C15.288 15.712 15.848 14.392 16.904 13.464C17.96 12.536 19.392 12.072 21.2 12.072C22.4 12.072 23.424 12.28 24.272 12.696C25.136 13.112 25.784 13.68 26.216 14.4C26.664 15.12 26.888 15.928 26.888 16.824C26.888 17.88 26.624 18.744 26.096 19.416C25.568 20.072 24.952 20.52 24.248 20.76V20.856C25.16 21.16 25.88 21.664 26.408 22.368C26.936 23.072 27.2 23.976 27.2 25.08C27.2 26.072 26.968 26.952 26.504 27.72C26.056 28.472 25.392 29.064 24.512 29.496C23.648 29.928 22.616 30.144 21.416 30.144C19.496 30.144 17.96 29.672 16.808 28.728C15.672 27.784 15.072 26.36 15.008 24.456H18.992C19.008 25.16 19.208 25.72 19.592 26.136C19.976 26.536 20.536 26.736 21.272 26.736C21.896 26.736 22.376 26.56 22.712 26.208C23.064 25.84 23.24 25.36 23.24 24.768C23.24 24 22.992 23.448 22.496 23.112C22.016 22.76 21.24 22.584 20.168 22.584H19.4V19.248H20.168C20.984 19.248 21.64 19.112 22.136 18.84C22.648 18.552 22.904 18.048 22.904 17.328C22.904 16.752 22.744 16.304 22.424 15.984C22.104 15.664 21.664 15.504 21.104 15.504C20.496 15.504 20.04 15.688 19.736 16.056C19.448 16.424 19.28 16.88 19.232 17.424H15.224Z" fill="black"/>
</svg>
