<svg width="42" height="42" viewBox="0 0 42 42" fill="none" xmlns="http://www.w3.org/2000/svg">
<circle cx="21" cy="21" r="20.5" fill="#FFEA7C" stroke="black"/>
<path d="M14.936 25.712C15.48 25.28 15.728 25.08 15.68 25.112C17.248 23.816 18.48 22.752 19.376 21.92C20.288 21.088 21.056 20.216 21.68 19.304C22.304 18.392 22.616 17.504 22.616 16.64C22.616 15.984 22.464 15.472 22.16 15.104C21.856 14.736 21.4 14.552 20.792 14.552C20.184 14.552 19.704 14.784 19.352 15.248C19.016 15.696 18.848 16.336 18.848 17.168H14.888C14.92 15.808 15.208 14.672 15.752 13.76C16.312 12.848 17.04 12.176 17.936 11.744C18.848 11.312 19.856 11.096 20.96 11.096C22.864 11.096 24.296 11.584 25.256 12.56C26.232 13.536 26.72 14.808 26.72 16.376C26.72 18.088 26.136 19.68 24.968 21.152C23.8 22.608 22.312 24.032 20.504 25.424H26.984V28.76H14.936V25.712Z" fill="black"/>
</svg>
